<svg xmlns="http://www.w3.org/2000/svg" version="1.1" xmlns:xlink="http://www.w3.org/1999/xlink" viewBox="0 0 200 200" width="200" height="200"><rect width="200" height="200" fill="url('#gradient')"></rect><defs><linearGradient id="gradient" gradientTransform="rotate(0 0.5 0.5)"><stop offset="0%" stop-color="#353664"></stop><stop offset="100%" stop-color="#211c36"></stop></linearGradient></defs><g><g fill="#445272" transform="matrix(3.934968962459356,0,0,3.934968962459356,33.225801873561224,127.97700471494664)" stroke="#607095" stroke-width="0.55"><path d="M9.08-7.79L3.74-5.95L9.08-4.15L9.08-1.15L0.45-4.67L0.45-7.27L9.08-10.78L9.08-7.79ZM20.18 0L19.35-2.66L14.65-2.66L13.83 0L10.17 0L15.38-14.22L18.60-14.22L23.86 0L20.18 0ZM16.99-10.23L15.47-5.30L18.53-5.30L16.99-10.23ZM24.90-4.13L30.21-5.98L24.90-7.78L24.90-10.77L33.49-7.26L33.49-4.66L24.90-1.14L24.90-4.13Z"></path></g></g><style>@media (prefers-color-scheme: light) { :root { filter: none; } }
@media (prefers-color-scheme: dark) { :root { filter: none; } }
</style></svg>